<svg width="24" height="24" viewBox="0 0 24 24" fill="none" xmlns="http://www.w3.org/2000/svg">
<circle opacity="0.5" cx="12" cy="12" r="12" fill="#FFE9E9"/>
<path d="M9.71586 18H14.2841C15.1057 18 15.6238 17.503 15.6604 16.6305L15.9848 9.19742H16.4715C16.7698 9.19742 17 8.96549 17 8.65071C17 8.33594 16.7698 8.104 16.4715 8.104H14.3469V7.34192C14.3469 6.48596 13.8341 6 12.9393 6H11.0555C10.1554 6 9.64783 6.48596 9.64783 7.34192V8.104H7.52852C7.23025 8.104 7 8.33594 7 8.65071C7 8.96549 7.23025 9.19742 7.52852 9.19742H8.00994L8.33961 16.6305C8.37624 17.5085 8.88906 18 9.71586 18ZM10.7363 7.3861C10.7363 7.14864 10.888 7.00506 11.134 7.00506H12.8608C13.1015 7.00506 13.2585 7.14864 13.2585 7.3861V8.104H10.7363V7.3861ZM9.85714 16.8845C9.59027 16.8845 9.41758 16.6912 9.40188 16.382L9.08268 9.19742H14.9016L14.5929 16.382C14.5772 16.6967 14.4097 16.8845 14.1376 16.8845H9.85714ZM10.5479 16.1114C10.7886 16.1114 10.9351 15.9512 10.9299 15.7138L10.7834 10.3958C10.7781 10.1583 10.6211 10.0037 10.3961 10.0037C10.1606 10.0037 10.0141 10.1638 10.0194 10.4013L10.1659 15.7193C10.1711 15.9567 10.3281 16.1114 10.5479 16.1114ZM11.9974 16.1114C12.2276 16.1114 12.3846 15.9567 12.3846 15.7248V10.3958C12.3846 10.1638 12.2276 10.0037 11.9974 10.0037C11.7724 10.0037 11.6154 10.1638 11.6154 10.3958V15.7248C11.6154 15.9567 11.7724 16.1114 11.9974 16.1114ZM13.4469 16.1114C13.6719 16.1114 13.8237 15.9567 13.8289 15.7248L13.9806 10.4013C13.9859 10.1638 13.8341 10.0092 13.6039 10.0092C13.3789 10.0092 13.2219 10.1638 13.2166 10.3958L13.0649 15.7193C13.0597 15.9512 13.2114 16.1114 13.4469 16.1114Z" fill="#FF0E0E"/>
</svg>
