<svg width="24" height="24" viewBox="0 0 24 24" fill="none" xmlns="http://www.w3.org/2000/svg">
<circle opacity="0.5" cx="12" cy="12" r="12" fill="#CFF4FF" fill-opacity="0.8"/>
<path d="M17.3227 7.73216L17.7932 7.23007C18.0504 6.96647 18.0755 6.58362 17.8246 6.3263L17.6489 6.14429C17.4231 5.91835 17.0342 5.96856 16.7832 6.2196L16.2939 6.69659L17.3227 7.73216ZM10.4162 13.8765L11.6959 13.3556L16.8962 8.15267L15.8674 7.12337L10.6671 12.3326L10.1276 13.5816C10.0586 13.7636 10.2531 13.9393 10.4162 13.8765ZM8.06381 18H14.9076C16.1371 18 16.8585 17.2782 16.8585 15.954V9.7782L15.4157 11.2217V15.7845C15.4157 16.3054 15.146 16.5565 14.7633 16.5565H8.20809C7.71252 16.5565 7.44906 16.3054 7.44906 15.7845V9.35142C7.44906 8.8305 7.71252 8.58573 8.20809 8.58573H12.825L14.2678 7.13593H8.06381C6.72766 7.13593 6 7.85769 6 9.18824V15.954C6 17.2845 6.72766 18 8.06381 18Z" fill="#193777"/>
</svg>
