<svg width="24" height="24" viewBox="0 0 24 24" fill="none" xmlns="http://www.w3.org/2000/svg">
<circle opacity="0.5" cx="12" cy="12" r="12" fill="#EBFFC0"/>
<path d="M11.6699 16.7207C16.3047 16.7207 19.3398 13 19.3398 11.8633C19.3398 10.7207 16.2988 7 11.6699 7C7.11133 7 4 10.7207 4 11.8633C4 13 7.10547 16.7207 11.6699 16.7207ZM11.6699 15.3965C8.27148 15.3965 5.64648 12.6191 5.64648 11.8633C5.64648 11.2305 8.27148 8.32422 11.6699 8.32422C15.0625 8.32422 17.6934 11.2305 17.6934 11.8633C17.6934 12.6191 15.0625 15.3965 11.6699 15.3965ZM11.6758 14.6875C13.2461 14.6875 14.5059 13.3984 14.5059 11.8633C14.5059 10.2871 13.2461 9.03906 11.6758 9.03906C10.0938 9.03906 8.83398 10.2812 8.83984 11.8633C8.8457 13.3984 10.0938 14.6875 11.6758 14.6875ZM11.6699 12.7422C11.1836 12.7422 10.791 12.3379 10.791 11.8633C10.791 11.377 11.1836 10.9844 11.6699 10.9844C12.1562 10.9844 12.5547 11.377 12.5547 11.8633C12.5547 12.3379 12.1562 12.7422 11.6699 12.7422Z" fill="#39AC02"/>
</svg>
