<svg width="22" height="30" viewBox="0 0 22 30" fill="none" xmlns="http://www.w3.org/2000/svg">
<path d="M3.26384 29.6667H7.02717H11.0009H14.9739H18.7385H20.3205C21.2506 29.6667 22 28.9223 22 28.005V5.49288C22 4.57626 21.2506 3.83192 20.3205 3.83192H18.2888C17.5538 3.04341 16.4604 2.63786 15.0294 2.63786H14.4768C14.2125 1.89081 13.7291 1.2712 13.0516 0.8525C12.5157 0.522465 11.8017 0.338737 11.0418 0.333344C10.2733 0.338737 9.55935 0.522465 9.0227 0.854522C8.33809 1.27592 7.85259 1.90295 7.59518 2.63819H7.04456C5.61498 2.63819 4.52124 3.04341 3.78617 3.83225H1.68051C0.75246 3.83225 0 4.5766 0 5.49322V28.005C0 28.9227 0.75246 29.6667 1.68051 29.6667H3.26384ZM5.12096 5.07856C5.49463 4.67099 6.14038 4.46299 7.04421 4.46299H8.31388H9.16965L9.23375 3.61684C9.23647 3.5811 9.25284 3.50087 9.26614 3.44828C9.35478 3.00767 9.61594 2.63954 10.0009 2.40255C10.2491 2.2495 10.6258 2.16185 11.0414 2.15915C11.4475 2.16185 11.828 2.2495 12.0728 2.40188C12.4577 2.63954 12.7202 3.00767 12.8089 3.44019C12.8252 3.52548 12.8399 3.59223 12.8423 3.61684L12.9043 4.46299H13.7632H15.0291C15.9425 4.46299 16.5944 4.67369 16.9639 5.09003C17.0942 5.23701 17.1777 5.39849 17.2357 5.55963H11.2872H11.037H10.7864H4.83593C4.89832 5.39545 4.98458 5.22791 5.12096 5.07856ZM1.9611 5.36646C2.12919 5.36646 2.48547 5.36646 2.97268 5.36646C2.82846 5.9908 2.87449 6.49681 2.88676 6.58648L2.987 7.38409H3.80253H10.7864H11.037H11.2872H18.2749H19.087L19.19 6.58648C19.2029 6.49681 19.2472 5.9908 19.1037 5.36646C19.551 5.36646 19.8804 5.36646 20.0392 5.36646C20.0392 6.70278 20.0392 26.7945 20.0392 28.1315C19.3103 28.1315 15.1791 28.1315 11.0012 28.1315C6.82431 28.1315 2.6897 28.1315 1.96144 28.1315C1.9611 26.7945 1.9611 6.70278 1.9611 5.36646Z" fill="#2F66DD"/>
<path d="M11.9143 3.83524C11.9143 3.34137 11.5109 2.94257 11.0108 2.94257C10.5133 2.94257 10.1086 3.34137 10.1086 3.83524C10.1086 4.32811 10.5137 4.72725 11.0108 4.72725C11.5109 4.72691 11.9143 4.32777 11.9143 3.83524Z" fill="#3066DD"/>
<path d="M8.42648 11.7767H17.1972C17.3343 11.7767 17.4448 11.6674 17.4448 11.5329V10.3473C17.4448 10.2118 17.3343 10.1036 17.1972 10.1036H8.42648C8.28976 10.1036 8.17896 10.2118 8.17896 10.3473V11.5329C8.17896 11.6674 8.28976 11.7767 8.42648 11.7767Z" fill="#3066DD"/>
<path d="M6.01524 10.1032H4.80387C4.66715 10.1032 4.55566 10.2115 4.55566 10.347V11.5326C4.55566 11.6671 4.66715 11.7763 4.80387 11.7763H6.01524C6.15196 11.7763 6.26242 11.6671 6.26242 11.5326V10.347C6.26242 10.2115 6.1523 10.1032 6.01524 10.1032Z" fill="#3066DD"/>
<path d="M8.42648 16.0234H17.1972C17.3343 16.0234 17.4448 15.9158 17.4448 15.7803V14.5943C17.4448 14.4592 17.3343 14.351 17.1972 14.351H8.42648C8.28976 14.351 8.17896 14.4592 8.17896 14.5943V15.7803C8.17896 15.9158 8.28976 16.0234 8.42648 16.0234Z" fill="#3066DD"/>
<path d="M6.01524 14.351H4.80387C4.66715 14.351 4.55566 14.4592 4.55566 14.5943V15.7803C4.55566 15.9158 4.66715 16.0234 4.80387 16.0234H6.01524C6.15196 16.0234 6.26242 15.9158 6.26242 15.7803V14.5943C6.26242 14.4592 6.1523 14.351 6.01524 14.351Z" fill="#3066DD"/>
<path d="M8.42648 20.2716H17.1972C17.3343 20.2716 17.4448 20.1634 17.4448 20.0289V18.8429C17.4448 18.7071 17.3343 18.5992 17.1972 18.5992H8.42648C8.28976 18.5992 8.17896 18.7071 8.17896 18.8429V20.0289C8.17896 20.1634 8.28976 20.2716 8.42648 20.2716Z" fill="#3066DD"/>
<path d="M6.01524 18.5992H4.80387C4.66715 18.5992 4.55566 18.7071 4.55566 18.8429V20.0289C4.55566 20.1634 4.66715 20.2716 4.80387 20.2716H6.01524C6.15196 20.2716 6.26242 20.1634 6.26242 20.0289V18.8429C6.26242 18.7071 6.1523 18.5992 6.01524 18.5992Z" fill="#3066DD"/>
<path d="M13.9883 24.2762V23.0899C13.9883 22.9561 13.8778 22.8458 13.7404 22.8458H8.42648C8.28976 22.8458 8.17896 22.9561 8.17896 23.0899V24.2762C8.17896 24.4104 8.28976 24.5199 8.42648 24.5199H13.7404C13.8778 24.5199 13.9883 24.4104 13.9883 24.2762Z" fill="#3066DD"/>
<path d="M6.01524 22.8458H4.80387C4.66715 22.8458 4.55566 22.9561 4.55566 23.0899V24.2762C4.55566 24.4104 4.66715 24.5199 4.80387 24.5199H6.01524C6.15196 24.5199 6.26242 24.4104 6.26242 24.2762V23.0899C6.26242 22.9557 6.1523 22.8458 6.01524 22.8458Z" fill="#3066DD"/>
</svg>
