<svg width="48" height="48" viewBox="0 0 48 48" fill="none" xmlns="http://www.w3.org/2000/svg">
    <path d="M11.5 29.987a.5.5 0 1 0-1 0v1.01L9 30.995v-3.633a1.019 1.019 0 0 1 .65-.952l2.94-1.163 2.048 2.152c.094.099.225.155.362.155h.015a.499.499 0 0 0 .367-.177l1.859-2.197 1.436.569 1.36-.538-2.617-1.035a.514.514 0 0 1-.328-.48v-.77c0-.014-.003-.027-.004-.04.173-.155.329-.33.463-.519a5.158 5.158 0 0 0 .949-2.98v-1.287c0-.04-.006-.08-.016-.118v-.604A3.37 3.37 0 0 0 15.13 14h-.26a3.37 3.37 0 0 0-3.354 3.38v.6a.501.501 0 0 0-.016.121v1.288c0 1.067.332 2.108.949 2.98.134.189.29.363.463.517-.001.014-.004.027-.004.04v.771c0 .212-.13.403-.327.48l-3.3 1.304A2.014 2.014 0 0 0 8 27.363v3.633A1.004 1.004 0 0 0 9 32h7v-1.002l-4.5-.001v-1.01zm3.478-3.68-1.49-1.564c.27-.281.42-.656.42-1.046v-.204c.704.264 1.48.264 2.184 0v.204c0 .334.111.657.315.92l-1.429 1.69zm-2.462-8.928A2.37 2.37 0 0 1 14.87 15h.26a2.37 2.37 0 0 1 2.354 2.38v.788c-.726-.123-1.291-1.023-1.306-1.046a.501.501 0 0 0-.769-.109c-1.178 1.09-2.363.914-2.894.753v-.387zm-.016 2.01V18.8l.002-.007a3.812 3.812 0 0 0 3.16-.697c.368.432 1.013 1.016 1.838 1.076v.216c0 .861-.269 1.702-.767 2.405a2.12 2.12 0 0 1-3.466 0 4.163 4.163 0 0 1-.767-2.405zM38.718 25.482l-3.299-1.305a.514.514 0 0 1-.327-.48v-.77c0-.014-.003-.027-.004-.04a3.09 3.09 0 0 0 .463-.518 5.159 5.159 0 0 0 .949-2.98v-1.287c0-.04-.006-.08-.016-.119v-.604A3.37 3.37 0 0 0 33.13 14h-.26a3.37 3.37 0 0 0-3.354 3.38v.601a.496.496 0 0 0-.016.12v1.288c0 1.067.332 2.108.949 2.98.134.19.29.363.463.518-.001.013-.004.026-.004.04v.77c0 .212-.13.403-.328.48l-2.609 1.032 1.355.54 1.264-.5 2.048 2.15c.094.1.225.156.362.156h.015a.5.5 0 0 0 .367-.177l1.858-2.196 3.11 1.23a1.02 1.02 0 0 1 .65.951V31h-1.5v-1.013a.5.5 0 1 0-1 0V31l-4.5-.001V32h7a1.004 1.004 0 0 0 1-1.004v-3.633a2.014 2.014 0 0 0-1.282-1.881zm-8.203-8.103A2.37 2.37 0 0 1 32.87 15h.26a2.37 2.37 0 0 1 2.354 2.38v.787c-.726-.122-1.291-1.022-1.306-1.045a.516.516 0 0 0-.769-.11c-1.178 1.09-2.363.915-2.894.754v-.387zm2.463 8.928-1.49-1.564c.27-.281.42-.656.42-1.046v-.203c.704.264 1.48.264 2.184 0v.203c0 .334.111.658.315.921l-1.429 1.69zM33 22.691c-.69 0-1.336-.334-1.733-.898a4.164 4.164 0 0 1-.767-2.404V18.8l.002-.007a3.812 3.812 0 0 0 3.16-.697c.368.432 1.013 1.016 1.838 1.077v.215c-.001.862-.27 1.702-.768 2.405A2.118 2.118 0 0 1 33 22.69z" fill="#fff"/>
    <path d="m29.719 26.981-3.3-1.304a.514.514 0 0 1-.327-.48v-.77c0-.014-.003-.027-.004-.04.174-.155.329-.329.463-.518a5.16 5.16 0 0 0 .95-2.98v-1.287c-.001-.04-.007-.08-.017-.119v-.604A3.37 3.37 0 0 0 24.13 15.5h-.26a3.371 3.371 0 0 0-3.354 3.38v.601a.5.5 0 0 0-.016.12v1.288c0 1.067.332 2.108.949 2.98.134.189.29.363.463.518-.001.013-.004.026-.004.04v.77c0 .212-.13.403-.327.48l-3.3 1.304a2.014 2.014 0 0 0-1.28 1.882v3.633a1.003 1.003 0 0 0 1 1.004h12a1.004 1.004 0 0 0 1-1.004v-3.633a2.014 2.014 0 0 0-1.282-1.882zm-8.203-8.102A2.37 2.37 0 0 1 23.87 16.5h.26a2.37 2.37 0 0 1 2.355 2.38v.787c-.727-.122-1.292-1.022-1.306-1.045a.51.51 0 0 0-.77-.11c-1.177 1.09-2.363.915-2.893.753v-.386zm-.016 2.01V20.3l.002-.007a3.814 3.814 0 0 0 3.16-.697c.368.432 1.013 1.016 1.838 1.076v.216c0 .861-.269 1.701-.767 2.404a2.12 2.12 0 0 1-3.466 0 4.163 4.163 0 0 1-.767-2.404zm3.907 5.229-1.429 1.689-1.49-1.564c.27-.281.42-.656.42-1.046v-.203c.704.263 1.48.263 2.184 0v.203c0 .334.111.657.316.921zM30 32.5h-1.5v-1.013a.5.5 0 1 0-1 0V32.5l-7-.002v-1.01a.5.5 0 1 0-1 0v1.01H18v-3.634a1.02 1.02 0 0 1 .65-.952l2.94-1.162 2.048 2.151c.094.1.225.155.362.155h.015a.499.499 0 0 0 .367-.177l1.859-2.197 3.11 1.23a1.02 1.02 0 0 1 .65.952V32.5z" fill="#fff"/>
</svg>
