<svg width="44" height="44" viewBox="0 0 44 44" fill="none" xmlns="http://www.w3.org/2000/svg">
    <path d="M14.264 36.667H31.32c.93 0 1.68-.745 1.68-1.662V12.493a1.67 1.67 0 0 0-1.68-1.661H29.29c-.735-.789-1.829-1.194-3.26-1.194h-.552a3.395 3.395 0 0 0-1.425-1.785c-.536-.33-1.25-.514-2.01-.52-.769.006-1.483.19-2.02.522a3.384 3.384 0 0 0-1.427 1.783h-.55c-1.43 0-2.524.405-3.259 1.194h-2.105c-.928 0-1.681.745-1.681 1.661v22.512c0 .918.752 1.662 1.68 1.662h1.584zm1.857-24.588c.374-.408 1.02-.616 1.923-.616h2.126l.064-.846c.002-.036.019-.116.032-.169.089-.44.35-.808.735-1.045.248-.153.625-.241 1.04-.244.407.003.787.09 1.032.243.385.238.647.606.736 1.038.016.085.03.152.033.177l.062.846h2.125c.913 0 1.565.21 1.935.627.13.147.214.309.272.47H15.836c.062-.165.149-.332.285-.481zm-3.16.287h1.012a3.765 3.765 0 0 0-.086 1.22l.1.798h16.1l.103-.798c.013-.09.057-.595-.086-1.22h.935v22.766H12.961V12.367z" fill="#929292"/>
    <path d="M22.914 10.835a.897.897 0 0 0-.903-.892.897.897 0 0 0-.902.892c0 .493.405.892.902.892.5 0 .903-.4.903-.892zM19.427 18.777h8.77c.137 0 .248-.11.248-.244v-1.186a.245.245 0 0 0-.248-.243h-8.77a.245.245 0 0 0-.248.243v1.186c0 .134.11.244.248.244zM17.015 17.103h-1.211a.246.246 0 0 0-.248.244v1.186c0 .134.111.243.248.243h1.211c.137 0 .247-.109.247-.243v-1.186a.245.245 0 0 0-.247-.244zM19.427 23.023h8.77a.244.244 0 0 0 .248-.243v-1.186a.245.245 0 0 0-.248-.243h-8.77a.245.245 0 0 0-.248.243v1.186c0 .136.11.243.248.243zM17.015 21.351h-1.211a.246.246 0 0 0-.248.243v1.186c0 .136.111.243.248.243h1.211a.244.244 0 0 0 .247-.243v-1.186a.244.244 0 0 0-.247-.243zM19.427 27.272h8.77a.245.245 0 0 0 .248-.243v-1.186a.245.245 0 0 0-.248-.244h-8.77a.245.245 0 0 0-.248.244v1.186c0 .134.11.243.248.243zM17.015 25.6h-1.211a.245.245 0 0 0-.248.243v1.186c0 .134.111.243.248.243h1.211a.245.245 0 0 0 .247-.243v-1.186a.244.244 0 0 0-.247-.244zM24.988 31.276V30.09a.246.246 0 0 0-.248-.244h-5.313a.246.246 0 0 0-.248.244v1.186c0 .134.11.244.248.244h5.313c.138 0 .248-.11.248-.244zM17.015 29.846h-1.211a.247.247 0 0 0-.248.244v1.186c0 .134.111.244.248.244h1.211c.137 0 .247-.11.247-.244V30.09a.246.246 0 0 0-.247-.244z" fill="#929292"/>
</svg>
