<svg width="44" height="44" viewBox="0 0 44 44" fill="none" xmlns="http://www.w3.org/2000/svg">
    <path d="M25.175 18.092c0 1.927-1.427 3.328-3.18 3.33-1.78-.014-3.202-1.41-3.202-3.33 0-1.766 1.42-3.222 3.199-3.222 1.761 0 3.183 1.454 3.183 3.222zm3.842 11.039H14.95a.426.426 0 0 1-.078-.007.46.46 0 0 1-.011-.114c0-.24.104-.683.394-1.24a6.67 6.67 0 0 1 1.305-1.714c1.173-1.122 2.96-2.079 5.431-2.079 2.462 0 4.25.956 5.426 2.08a6.696 6.696 0 0 1 1.308 1.713c.291.559.396 1 .396 1.24 0 .059-.007.093-.012.111a.384.384 0 0 1-.093.01zm.086.006.001-.001v.001zM16.906 20.328c0 1.27-.934 2.176-2.071 2.178-1.158-.01-2.088-.914-2.088-2.178 0-1.154.928-2.103 2.086-2.103 1.144 0 2.073.947 2.073 2.102zm-4.692 7.67-.008.014H9.95c.025-.151.096-.386.249-.68.191-.369.487-.784.892-1.172.76-.726 1.898-1.355 3.46-1.423-.354.34-.674.721-.957 1.097a17.316 17.316 0 0 0-1.036 1.575l-.25.427-.094.163zm-2.272.162v-.003.003zM27.166 20.328c0 1.27.935 2.176 2.072 2.178 1.158-.01 2.087-.914 2.087-2.178a2.094 2.094 0 0 0-2.085-2.103c-1.144 0-2.073.947-2.073 2.102zm4.693 7.67a.654.654 0 0 1 .008.014h2.256a2.4 2.4 0 0 0-.25-.68 4.567 4.567 0 0 0-.892-1.172c-.759-.726-1.897-1.355-3.46-1.423.354.34.675.721.957 1.097.416.553.767 1.119 1.037 1.575a49.886 49.886 0 0 1 .344.59zm2.272.162v-.003.003z" stroke="#929292" stroke-width="1.4"/>
</svg>
