<svg width="44" height="44" viewBox="0 0 44 44" fill="none" xmlns="http://www.w3.org/2000/svg">
    <path d="M30.408 26.694h-8.645a.817.817 0 0 0-.803.802c0 .433.37.803.803.803h8.645c.433 0 .803-.37.803-.803a.817.817 0 0 0-.803-.802zM30.408 22.525h-8.645a.817.817 0 0 0-.803.803c0 .432.37.803.803.803h8.645c.433 0 .803-.37.803-.803a.817.817 0 0 0-.803-.803zM30.408 30.862h-8.645a.817.817 0 0 0-.803.803c0 .432.37.802.803.802h8.645c.433 0 .803-.37.803-.802a.817.817 0 0 0-.803-.803z" fill="#929292"/>
    <path d="m35.349 18.202-5.558-5.558a2.098 2.098 0 0 0-1.513-.617H24.82c-1.05-2.748-3.675-4.693-6.793-4.693-3.983-.031-7.256 3.21-7.256 7.225a7.2 7.2 0 0 0 1.605 4.539l-3.489 3.489a.82.82 0 0 0 .556 1.39.83.83 0 0 0 .556-.248l3.489-3.489a7.472 7.472 0 0 0 2.655 1.359v12.937c0 1.173.957 2.13 2.13 2.13h15.532c1.173 0 2.13-.956 2.13-2.13v-14.82c.062-.588-.185-1.112-.586-1.514zm-5.712-3.458 3.612 3.613h-3.088a.541.541 0 0 1-.524-.525v-3.088zm-11.61-5.836a5.653 5.653 0 0 1 5.65 5.65 5.653 5.653 0 0 1-5.65 5.651 5.653 5.653 0 0 1-5.65-5.65 5.653 5.653 0 0 1 5.65-5.65zm15.84 26.122H18.305a.52.52 0 0 1-.525-.525v-12.69h.247a7.248 7.248 0 0 0 7.256-7.256c0-.309-.031-.649-.062-.957h2.81V17.8c0 1.173.957 2.13 2.13 2.13h4.2v14.543a.504.504 0 0 1-.494.556z" fill="#929292"/>
    <path d="M18.027 14.065a1.76 1.76 0 1 0 0-3.52 1.76 1.76 0 0 0 0 3.52zM15.68 17.863c1.143.061 3.551.061 4.694 0 .309 0 .556-.31.494-.618l-.155-1.019c-.092-.833-.74-1.513-1.513-1.698l-.802 1.976-.186-1.42h.124a.133.133 0 0 0 .123-.124v-.401a.133.133 0 0 0-.123-.124h-.618a.133.133 0 0 0-.123.124v.37c0 .062.062.124.123.124h.124l-.185 1.42-.803-1.976a1.974 1.974 0 0 0-1.513 1.698l-.155 1.02c-.03.339.186.617.494.648z" fill="#929292"/>
</svg>
