<svg width="44" height="44" viewBox="0 0 44 44" fill="none" xmlns="http://www.w3.org/2000/svg">
    <path d="M35.2 9.167H8.8c-.389 0-.762.157-1.037.436-.275.28-.43.658-.43 1.053V31.51c0 .395.155.774.43 1.054S8.41 33 8.8 33h26.4c.389 0 .762-.157 1.037-.436.275-.28.43-.659.43-1.054V10.656c0-.395-.155-.774-.43-1.053a1.455 1.455 0 0 0-1.037-.436zm0 1.49v2.978H8.8v-2.979h26.4zM8.8 31.51V15.125h26.4V31.51H8.8zm1.467-19.364a.737.737 0 0 1 .453-.688.724.724 0 0 1 .799.161.748.748 0 0 1 .159.812.743.743 0 0 1-.27.334.726.726 0 0 1-.926-.093.75.75 0 0 1-.215-.526zm6.6 5.958a5.077 5.077 0 0 0-2.852.879 5.197 5.197 0 0 0-1.89 2.34c-.39.952-.491 2-.293 3.012a5.24 5.24 0 0 0 1.405 2.67 5.11 5.11 0 0 0 2.628 1.426 5.06 5.06 0 0 0 2.966-.297 5.15 5.15 0 0 0 2.304-1.92 5.272 5.272 0 0 0-.64-6.581 5.099 5.099 0 0 0-3.628-1.529zm3.593 4.469H17.6v-2.905c.704.148 1.35.501 1.858 1.018a3.753 3.753 0 0 1 1.002 1.887zm-3.593 4.469c-.91 0-1.787-.342-2.462-.96a3.767 3.767 0 0 1-.495-4.972 3.662 3.662 0 0 1 2.223-1.442v4.395h4.327c-.17.84-.62 1.595-1.275 2.138a3.639 3.639 0 0 1-2.318.84zm8.066-2.98H26.4v4.47h-1.467v-4.47zm2.934-2.979h1.466v7.448h-1.466v-7.448zm2.933-2.979h1.467v10.427H30.8V18.104z" fill="#929292"/>
</svg>
