<svg width="22" height="26" viewBox="0 0 22 26" fill="none" xmlns="http://www.w3.org/2000/svg">
<path d="M3.55069 9.31403V12.7613C3.55069 13.489 3.22655 14.5983 2.84007 15.2186L1.40638 17.4969C0.52123 18.9044 1.13211 20.467 2.7528 20.9919C8.12604 22.7096 13.9231 22.7096 19.2964 20.9919C20.8049 20.5148 21.4656 18.809 20.6428 17.4969L19.2091 15.2186C18.8351 14.5983 18.511 13.489 18.511 12.7613V9.31403C18.511 5.37767 15.1449 2.15701 11.0308 2.15701C6.90428 2.15701 3.55069 5.36574 3.55069 9.31403Z" stroke="white" stroke-width="1.5" stroke-linecap="round"/>
<path d="M12.1405 2.26441C10.9437 2.12127 9.79676 2.20476 8.72461 2.50297C9.08615 1.62027 9.98377 1 11.031 1C12.0782 1 12.9758 1.62027 13.3374 2.50297C12.9509 2.39562 12.5519 2.31212 12.1405 2.26441Z" stroke="white" stroke-width="1.5" stroke-linecap="round" stroke-linejoin="round"/>
<path d="M14.7709 21.4215C14.7709 23.3897 13.0879 25 11.0308 25C10.0086 25 9.06107 24.5944 8.38786 23.9503C7.71464 23.3062 7.29077 22.3996 7.29077 21.4215" stroke="white" stroke-width="1.5"/>
</svg>
